<?xml version="1.0" encoding="utf-8"?>
<!-- Generator: Adobe Illustrator 23.0.4, SVG Export Plug-In . SVG Version: 6.00 Build 0)  -->
<svg version="1.1" id="Layer_1" xmlns="http://www.w3.org/2000/svg" xmlns:xlink="http://www.w3.org/1999/xlink" x="0px" y="0px"
	 viewBox="0 0 792 612" style="enable-background:new 0 0 792 612;" xml:space="preserve">
<style type="text/css">
	.st0{fill:#FFFFFF;}
</style>
<path class="st0" d="M382.92,293.73h0.21c0.37,0.04,0.64,0.19,0.85,0.41c0.2,0.21,0.37,0.49,0.37,0.88c0,0.38-0.16,0.69-0.35,0.91
	c-0.2,0.22-0.48,0.37-0.84,0.41c0.05,0.88,0.1,1.76,0.15,2.64h3.39v1.23c-1.08,0.02-2.17-0.01-3.26,0c0.01,0.26,0.04,0.56,0.06,0.82
	c1.49,0.01,3-0.02,4.5-0.02c0.65,1.46,1.29,2.93,1.93,4.4c0.49-0.17,0.97-0.35,1.46-0.52c0.13,0.31,0.26,0.62,0.4,0.93v0.02
	c-0.87,0.34-1.73,0.68-2.61,1.01c-0.66-1.54-1.32-3.08-1.98-4.61h-4.85c-0.16-2.19-0.32-4.37-0.47-6.56
	c-0.25-0.35-0.18-0.98,0.02-1.31C382.09,294.02,382.44,293.78,382.92,293.73"/>
<path class="st0" d="M384.05,308.4h-0.78c-1.35-0.14-2.36-0.69-3.1-1.45c-0.74-0.76-1.29-1.77-1.37-3.16v-0.4
	c0.06-1.08,0.43-1.9,0.92-2.59c0.48-0.68,1.13-1.23,1.92-1.58c0.03,0.48,0.07,0.95,0.11,1.42c-0.47,0.29-0.83,0.67-1.12,1.15
	c-0.28,0.47-0.51,1.05-0.51,1.76c0,0.75,0.18,1.3,0.47,1.79c0.28,0.47,0.66,0.87,1.11,1.17c0.46,0.3,1.01,0.54,1.71,0.57
	c0.73,0.04,1.37-0.13,1.87-0.4c0.98-0.52,1.67-1.4,1.87-2.68c0.29,0.58,0.58,1.16,0.86,1.75
	C387.24,307.17,386.03,308.16,384.05,308.4"/>
<path class="st0" d="M361.25,294.39c1.28,0.52,1.86,1.61,1.48,2.99c-0.16,0.57-0.48,1.13-0.85,1.61c-0.43,0.56-1.08,0.82-1.81,0.63
	c-0.71-0.18-1.1-0.7-1.27-1.37c-0.31-1.19-0.06-2.28,0.82-3.17c0.31-0.31,0.77-0.47,1.17-0.7H361.25z"/>
<path class="st0" d="M366.33,300.72c-0.24,0.43-0.41,0.93-0.74,1.27c-0.35,0.35-0.82,0.67-1.3,0.8c-0.98,0.26-1.76-0.39-1.91-1.48
	c-0.16-1.12,0.73-2.5,1.84-2.84c0.85-0.27,1.6,0.06,1.97,0.86c0.04,0.09,0.1,0.17,0.15,0.25V300.72z"/>
<path class="st0" d="M357.99,308.28c-0.74,0.17-1.42,0.33-2.12,0.47c-0.46,0.09-0.93,0.22-1.38,0.18c-1.64-0.11-2.57-1.58-2.08-3.2
	c0.21-0.69,0.64-1.25,1.13-1.77c0.61-0.64,1.19-1.32,1.77-1.99c0.31-0.36,0.57-0.76,0.9-1.1c1.03-1.06,2.66-1.06,3.69,0.01
	c0.34,0.35,0.58,0.78,0.89,1.16c0.52,0.63,1.02,1.26,1.59,1.85c0.58,0.6,1.09,1.23,1.29,2.03c0.48,1.93-1.13,3.41-3.19,2.93
	C359.64,308.66,358.81,308.47,357.99,308.28"/>
<path class="st0" d="M355.5,299.69c-0.38-0.21-0.81-0.37-1.13-0.65c-0.95-0.83-1.22-2.45-0.66-3.56c0.56-1.11,1.75-1.34,2.69-0.52
	c1.01,0.86,1.32,2.62,0.66,3.75c-0.35,0.6-0.86,0.9-1.5,0.88C355.55,299.62,355.52,299.65,355.5,299.69"/>
<path class="st0" d="M353.81,300.75c0,1.42-0.7,2.16-1.73,2.07c-0.25-0.02-0.5-0.11-0.72-0.23c-1.04-0.56-1.61-1.97-1.26-3.08
	c0.33-1.04,1.36-1.46,2.33-0.9C353.38,299.14,353.77,300,353.81,300.75"/>
<path class="st0" d="M407.98,294.17h0.05c2.7,1.37,5.4,2.74,8.11,4.1v2.06h-0.69c-0.04,1.93-0.01,3.94-0.02,5.89h-14.68v-5.89h-0.83
	v-2.06C402.62,296.92,405.3,295.54,407.98,294.17 M402.6,298.99v5.4h11.01v-5.35c-1.86-0.95-3.73-1.89-5.61-2.83
	C406.21,297.15,404.36,298.02,402.6,298.99"/>
<path class="st0" d="M405.21,299.46h5.61v1.43h-5.63v-1.37C405.19,299.49,405.19,299.47,405.21,299.46"/>
<path class="st0" d="M405.21,301.7h5.61v1.43h-5.63v-1.37C405.19,301.73,405.19,301.7,405.21,301.7"/>
<polygon class="st0" points="400.98,306.62 400.98,307.85 401.91,307.85 401.91,307.63 401.23,307.63 401.23,307.31 401.83,307.31 
	401.83,307.1 401.23,307.1 401.23,306.84 401.88,306.84 401.88,306.62 "/>
<path class="st0" d="M403.21,307.49c-0.02,0.07-0.05,0.13-0.1,0.17l0.14,0.13l-0.14,0.14l-0.14-0.14c-0.05,0.03-0.09,0.05-0.12,0.06
	c-0.05,0.02-0.12,0.03-0.2,0.03c-0.16,0-0.29-0.05-0.4-0.14c-0.13-0.11-0.19-0.28-0.19-0.51c0-0.22,0.06-0.39,0.19-0.51
	c0.11-0.09,0.24-0.14,0.4-0.14c0.16,0,0.29,0.05,0.4,0.15c0.12,0.12,0.19,0.27,0.19,0.48C403.25,307.32,403.23,307.42,403.21,307.49
	 M402.74,307.65c0.02,0,0.03-0.01,0.06-0.02l-0.12-0.12l0.13-0.14l0.13,0.12c0.02-0.04,0.03-0.07,0.04-0.11
	c0.01-0.04,0.02-0.1,0.02-0.16c0-0.14-0.03-0.24-0.09-0.32c-0.05-0.08-0.14-0.11-0.25-0.11c-0.1,0-0.18,0.04-0.24,0.11
	c-0.06,0.07-0.09,0.18-0.09,0.32c0,0.17,0.04,0.29,0.13,0.36c0.06,0.05,0.12,0.07,0.2,0.07
	C402.68,307.67,402.71,307.66,402.74,307.65"/>
<path class="st0" d="M403.44,306.62h0.26v0.75c0,0.08,0.01,0.15,0.03,0.19c0.03,0.07,0.1,0.1,0.2,0.1c0.1,0,0.17-0.03,0.2-0.1
	c0.02-0.04,0.03-0.1,0.03-0.19v-0.75h0.26v0.75c0,0.13-0.02,0.23-0.06,0.3c-0.08,0.13-0.22,0.2-0.44,0.2s-0.36-0.07-0.43-0.2
	c-0.04-0.07-0.06-0.17-0.06-0.3V306.62z"/>
<path class="st0" d="M405.04,306.62l-0.44,1.22h0.27l0.08-0.25h0.46l0.08,0.25h0.28l-0.44-1.22H405.04z M405.18,306.9l0.16,0.48
	h-0.32L405.18,306.9z"/>
<polygon class="st0" points="405.92,306.62 405.92,307.85 406.79,307.85 406.79,307.63 406.18,307.63 406.18,306.62 "/>
<polygon class="st0" points="408.15,306.62 408.15,307.09 407.67,307.09 407.67,306.62 407.41,306.62 407.41,307.85 407.67,307.85 
	407.67,307.3 408.15,307.3 408.15,307.85 408.4,307.85 408.4,306.62 "/>
<path class="st0" d="M409.6,307.74c-0.09,0.09-0.23,0.14-0.41,0.14c-0.17,0-0.31-0.05-0.4-0.14c-0.12-0.12-0.19-0.29-0.19-0.5
	c0-0.22,0.07-0.39,0.19-0.51c0.09-0.09,0.23-0.14,0.4-0.14c0.18,0,0.31,0.05,0.41,0.14c0.12,0.11,0.19,0.28,0.19,0.51
	C409.79,307.45,409.73,307.62,409.6,307.74 M409.44,307.55c0.06-0.08,0.09-0.18,0.09-0.32c0-0.14-0.03-0.24-0.09-0.32
	c-0.06-0.07-0.14-0.11-0.25-0.11c-0.1,0-0.18,0.04-0.24,0.11c-0.06,0.08-0.09,0.18-0.09,0.32c0,0.14,0.03,0.24,0.09,0.32
	c0.06,0.07,0.14,0.11,0.24,0.11C409.3,307.66,409.38,307.63,409.44,307.55"/>
<path class="st0" d="M409.99,306.62h0.26v0.75c0,0.08,0.01,0.15,0.03,0.19c0.03,0.07,0.1,0.1,0.2,0.1s0.17-0.03,0.2-0.1
	c0.02-0.04,0.03-0.1,0.03-0.19v-0.75h0.26v0.75c0,0.13-0.02,0.23-0.06,0.3c-0.08,0.13-0.22,0.2-0.43,0.2c-0.21,0-0.36-0.07-0.43-0.2
	c-0.04-0.07-0.06-0.17-0.06-0.3V306.62z"/>
<path class="st0" d="M411.41,307.47c0.01,0.06,0.02,0.1,0.05,0.12c0.04,0.05,0.12,0.08,0.22,0.08c0.06,0,0.11-0.01,0.15-0.02
	c0.07-0.03,0.11-0.07,0.11-0.14c0-0.04-0.02-0.07-0.05-0.09s-0.09-0.04-0.17-0.06l-0.13-0.03c-0.13-0.03-0.22-0.06-0.27-0.09
	c-0.08-0.05-0.12-0.14-0.12-0.26c0-0.11,0.04-0.2,0.12-0.27c0.08-0.07,0.2-0.11,0.36-0.11c0.13,0,0.24,0.04,0.34,0.1
	c0.09,0.07,0.14,0.17,0.14,0.3h-0.25c0-0.07-0.04-0.13-0.1-0.16c-0.04-0.02-0.09-0.03-0.15-0.03c-0.07,0-0.12,0.01-0.16,0.04
	c-0.04,0.03-0.06,0.06-0.06,0.11c0,0.04,0.02,0.08,0.06,0.1c0.02,0.02,0.08,0.03,0.16,0.05l0.22,0.05c0.09,0.02,0.17,0.05,0.21,0.09
	c0.07,0.05,0.11,0.14,0.11,0.25c0,0.11-0.04,0.2-0.13,0.28c-0.09,0.07-0.21,0.11-0.37,0.11c-0.16,0-0.29-0.04-0.38-0.11
	c-0.1-0.07-0.14-0.17-0.14-0.3H411.41z"/>
<rect x="412.35" y="306.63" class="st0" width="0.26" height="1.22"/>
<polygon class="st0" points="413.6,306.62 413.6,307.48 413.11,306.62 412.84,306.62 412.84,307.85 413.08,307.85 413.08,306.98 
	413.58,307.85 413.84,307.85 413.84,306.62 "/>
<path class="st0" d="M414.91,307.01c-0.02-0.08-0.07-0.14-0.14-0.18c-0.04-0.02-0.09-0.03-0.14-0.03c-0.1,0-0.18,0.04-0.25,0.11
	c-0.06,0.07-0.09,0.18-0.09,0.33c0,0.15,0.04,0.26,0.1,0.32c0.07,0.06,0.15,0.09,0.24,0.09c0.09,0,0.16-0.02,0.21-0.07
	c0.05-0.05,0.09-0.11,0.1-0.19h-0.28v-0.2h0.51v0.66H415l-0.03-0.15c-0.05,0.06-0.09,0.1-0.13,0.12c-0.07,0.04-0.15,0.06-0.25,0.06
	c-0.16,0-0.3-0.05-0.4-0.17c-0.11-0.11-0.16-0.27-0.16-0.46c0-0.2,0.05-0.36,0.17-0.48c0.11-0.12,0.25-0.18,0.43-0.18
	c0.16,0,0.28,0.04,0.38,0.12c0.1,0.08,0.15,0.18,0.17,0.29H414.91z"/>
<path class="st0" d="M401.92,309.5c-0.09,0.09-0.23,0.14-0.4,0.14c-0.18,0-0.31-0.05-0.41-0.14c-0.12-0.12-0.19-0.29-0.19-0.5
	c0-0.22,0.06-0.39,0.19-0.5c0.1-0.1,0.23-0.14,0.41-0.14c0.18,0,0.31,0.05,0.4,0.14c0.12,0.11,0.19,0.28,0.19,0.5
	C402.1,309.21,402.04,309.38,401.92,309.5 M401.76,309.31c0.06-0.08,0.09-0.18,0.09-0.32c0-0.14-0.03-0.24-0.09-0.32
	c-0.06-0.08-0.14-0.11-0.24-0.11c-0.1,0-0.18,0.04-0.24,0.11c-0.06,0.08-0.09,0.18-0.09,0.32c0,0.14,0.03,0.24,0.09,0.32
	c0.06,0.07,0.14,0.11,0.24,0.11C401.62,309.42,401.7,309.39,401.76,309.31"/>
<path class="st0" d="M403.34,309.08c-0.07,0.06-0.18,0.09-0.31,0.09h-0.26v0.44h-0.25v-1.22h0.53c0.12,0,0.22,0.03,0.29,0.09
	c0.07,0.06,0.11,0.16,0.11,0.29C403.45,308.91,403.41,309.02,403.34,309.08 M403.14,308.64c-0.03-0.03-0.08-0.04-0.14-0.04h-0.23
	v0.36H403c0.06,0,0.1-0.01,0.14-0.04c0.03-0.03,0.05-0.08,0.05-0.14C403.19,308.71,403.17,308.66,403.14,308.64"/>
<path class="st0" d="M404.69,309.08c-0.08,0.06-0.18,0.09-0.31,0.09h-0.26v0.44h-0.25v-1.22h0.53c0.12,0,0.22,0.03,0.29,0.09
	c0.07,0.06,0.11,0.16,0.11,0.29C404.79,308.91,404.76,309.02,404.69,309.08 M404.49,308.64c-0.03-0.03-0.08-0.04-0.14-0.04h-0.23
	v0.36h0.23c0.06,0,0.11-0.01,0.14-0.04c0.03-0.03,0.05-0.08,0.05-0.14C404.54,308.71,404.52,308.66,404.49,308.64"/>
<path class="st0" d="M406.16,309.5c-0.1,0.09-0.23,0.14-0.41,0.14c-0.17,0-0.31-0.05-0.4-0.14c-0.12-0.12-0.19-0.29-0.19-0.5
	c0-0.22,0.06-0.39,0.19-0.5c0.09-0.1,0.23-0.14,0.4-0.14c0.18,0,0.31,0.05,0.41,0.14c0.12,0.11,0.19,0.28,0.19,0.5
	C406.34,309.21,406.28,309.38,406.16,309.5 M406,309.31c0.06-0.08,0.09-0.18,0.09-0.32c0-0.14-0.03-0.24-0.09-0.32
	c-0.06-0.08-0.14-0.11-0.25-0.11c-0.1,0-0.18,0.04-0.24,0.11c-0.06,0.08-0.09,0.18-0.09,0.32c0,0.14,0.03,0.24,0.09,0.32
	c0.06,0.07,0.14,0.11,0.24,0.11C405.85,309.42,405.93,309.39,406,309.31"/>
<path class="st0" d="M407.54,308.41c0.05,0.02,0.08,0.05,0.11,0.09c0.03,0.03,0.05,0.07,0.06,0.1c0.02,0.04,0.02,0.08,0.02,0.13
	c0,0.06-0.02,0.12-0.05,0.17c-0.03,0.06-0.08,0.1-0.14,0.12c0.06,0.02,0.1,0.05,0.12,0.09c0.02,0.04,0.04,0.11,0.04,0.19v0.08
	c0,0.06,0,0.09,0.01,0.12c0.01,0.03,0.02,0.05,0.05,0.07v0.03h-0.28c-0.01-0.03-0.02-0.05-0.02-0.07c-0.01-0.03-0.01-0.07-0.01-0.1
	v-0.11c0-0.08-0.01-0.13-0.04-0.16c-0.03-0.02-0.07-0.04-0.15-0.04H407v0.48h-0.25v-1.22h0.59
	C407.42,308.38,407.49,308.39,407.54,308.41 M407,308.59v0.33h0.28c0.06,0,0.1-0.01,0.12-0.02c0.05-0.02,0.07-0.07,0.07-0.14
	c0-0.07-0.02-0.12-0.07-0.15c-0.03-0.02-0.07-0.02-0.12-0.02H407z"/>
<polygon class="st0" points="408.09,308.38 408.09,308.6 408.46,308.6 408.46,309.6 408.72,309.6 408.72,308.6 409.08,308.6 
	409.08,308.38 "/>
<path class="st0" d="M409.44,308.38h0.26v0.75c0,0.08,0.01,0.15,0.03,0.18c0.03,0.07,0.1,0.1,0.2,0.1c0.11,0,0.17-0.03,0.21-0.1
	c0.02-0.04,0.03-0.1,0.03-0.18v-0.75h0.26v0.75c0,0.13-0.02,0.23-0.06,0.3c-0.08,0.13-0.22,0.2-0.44,0.2c-0.21,0-0.36-0.07-0.43-0.2
	c-0.04-0.07-0.06-0.17-0.06-0.3V308.38z"/>
<polygon class="st0" points="411.64,308.38 411.64,309.24 411.15,308.38 410.88,308.38 410.88,309.6 411.12,309.6 411.12,308.74 
	411.62,309.6 411.88,309.6 411.88,308.38 "/>
<rect x="412.31" y="308.38" class="st0" width="0.25" height="1.22"/>
<polygon class="st0" points="412.91,308.38 412.91,308.6 413.28,308.6 413.28,309.6 413.54,309.6 413.54,308.6 413.91,308.6 
	413.91,308.38 "/>
<polygon class="st0" points="414.97,308.38 414.72,308.92 414.47,308.38 414.16,308.38 414.59,309.15 414.59,309.6 414.85,309.6 
	414.85,309.15 415.26,308.38 "/>
</svg>
