<?xml version="1.0" encoding="UTF-8"?> <svg xmlns="http://www.w3.org/2000/svg" xmlns:xlink="http://www.w3.org/1999/xlink" version="1.1" id="Layer_1" x="0px" y="0px" viewBox="0 0 100 100" style="enable-background:new 0 0 100 100;" xml:space="preserve"> <style type="text/css"> .st0{fill:#408186;} </style> <title>flogo-HexRBG-Wht-100</title> <path class="st0" d="M94.48,0h-89C2.45,0.02,0,2.49,0,5.52v89C0.02,97.55,2.49,100,5.52,100h47.9V61.33h-13V46.19h13V35.06 c0-12.91,7.89-20,19.41-20c3.89-0.02,7.77,0.18,11.64,0.6V29.2h-8c-6.25,0-7.46,3-7.46,7.35v9.64H84l-2,15.14H69V100h25.48 c3.05,0,5.52-2.47,5.52-5.52v-89C99.98,2.45,97.51,0,94.48,0z"></path> </svg> 