<?xml version="1.0" encoding="utf-8"?>
<!-- Generator: Adobe Illustrator 23.0.4, SVG Export Plug-In . SVG Version: 6.00 Build 0)  -->
<svg version="1.1" id="Layer_1" xmlns="http://www.w3.org/2000/svg" xmlns:xlink="http://www.w3.org/1999/xlink" x="0px" y="0px"
	 viewBox="0 0 792 612" style="enable-background:new 0 0 792 612;" xml:space="preserve">
<style type="text/css">
	.st0{fill:#FFFFFF;}
	.st1{fill:#418084;}
</style>
<g>
	<g>
		<g>
			<path class="st0" d="M413.28,347.1c-3.25,4.05-8.48,6.07-15.67,6.07s-12.43-2.03-15.69-6.1c-3.27-4.06-4.9-10.37-4.9-18.93v-69.4
				h14.21v69.14c0,4.91,0.23,7.9,0.69,8.96c0.46,1.06,1.01,2.02,1.67,2.89c0.65,0.87,2,1.3,4.06,1.3c2.05,0,3.52-0.6,4.4-1.8
				c0.88-1.2,1.42-2.7,1.62-4.48s0.29-4.07,0.29-6.87v-69.14h14.21v69.4C418.16,336.73,416.53,343.05,413.28,347.1z"/>
		</g>
		<g>
			<path class="st0" d="M431.62,352.11v-93.31h21.42c7.25,0,12.2,2.2,14.87,6.6c2.67,4.4,4.07,10.97,4.21,19.7v1.96
				c0,9.26-1.32,16.29-3.95,21.08c-2.64,4.79-7.52,7.18-14.66,7.18h-7.69v36.8H431.62z M445.83,303.59h4.88c3,0,4.96-1.16,5.86-3.47
				c0.9-2.31,1.35-6.72,1.35-13.23v-1.8c-0.03-5.51-0.52-9.46-1.46-11.82c-0.93-2.37-2.82-3.55-5.64-3.55h-4.99V303.59z"/>
		</g>
		<g>
			<path class="st0" d="M486.44,352.11v-81.01h-10.92v-12.3h35.58v12.3h-10.5v81.01H486.44z"/>
		</g>
		<g>
			<path class="st0" d="M554.15,346.43c-3.26,4.49-8.46,6.73-15.61,6.73s-12.41-2.25-15.75-6.76c-3.34-4.5-5.01-11.3-5.01-20.39
				v-42.68c0-17.11,6.98-25.66,20.94-25.66c7.21,0,12.4,2.17,15.56,6.52c3.16,4.35,4.75,10.73,4.75,19.14v42.68
				C559.03,335.14,557.4,341.95,554.15,346.43z M533.34,337.63c0.83,2.16,2.54,3.23,5.12,3.23c2.58,0,4.28-1.11,5.09-3.31
				c0.81-2.21,1.22-6,1.22-11.37V282.7c0-4.42-0.42-7.64-1.25-9.68c-0.83-2.03-2.46-3.05-4.88-3.05c-2.42,0-4.11,1.02-5.09,3.05
				c-0.97,2.03-1.46,5.24-1.46,9.62v43.53C532.09,331.66,532.51,335.48,533.34,337.63z"/>
		</g>
		<g>
			<path class="st0" d="M579.5,352.11l-11.4-93.31h12.73l6.84,66.49l8.7-66.49h11.45l8.75,66.49l6.05-66.49h12.78l-10.71,93.31
				h-14.16l-8.27-62.03l-8.59,62.03H579.5z"/>
		</g>
		<g>
			<path class="st0" d="M645.5,352.11v-93.31h11.14l19.77,55.99l-1.01-25.45v-30.54h12.78v93.31h-10.07l-20.31-57.95l0.79,24.49
				v33.46H645.5z"/>
		</g>
	</g>
	<g>
		<path class="st0" d="M341.21,259.09h0.72l18.76,41.37h-8.86l-1.93-4.64h-16.65l-1.93,4.64h-8.14L341.21,259.09z M346.88,288.76
			l-2.95-7.12c-1.21-2.89-2.47-7.36-2.47-7.36s-1.21,4.46-2.41,7.36l-2.95,7.12H346.88z"/>
	</g>
	<g>
		<path class="st0" d="M337.71,318.75h-11.7v-7.42h31.84v7.42h-11.7v33.59h-8.44V318.75z"/>
	</g>
	<path class="st1" d="M118.4,341.51v-83.38h-14.59v95.79h33.04v-12.41H118.4z M131.63,348.41h-21.26v-84.99h1.47v83.52h19.79V348.41
		z"/>
	<g>
		<path class="st1" d="M161.31,263.83c-7.06,0-12.8,5.74-12.8,12.8v58.47c0,7.06,5.74,12.8,12.8,12.8c7.06,0,12.8-5.74,12.8-12.8
			v-58.47C174.1,269.57,168.36,263.83,161.31,263.83z M167.84,327.31c0,5.52-0.42,9.41-1.25,11.67c-0.83,2.27-2.58,3.4-5.22,3.4
			s-4.4-1.11-5.25-3.32c-0.85-2.21-1.28-6.13-1.28-11.76v-44.68c0-4.5,0.5-7.79,1.5-9.88c1-2.09,2.74-3.13,5.22-3.13
			c2.48,0,4.15,1.04,5.01,3.13s1.28,5.4,1.28,9.93V327.31z"/>
		<path class="st1" d="M177.61,263.68c-3.25-4.46-8.57-6.69-15.98-6.69c-14.33,0-21.5,8.78-21.5,26.34v43.81
			c0,9.33,1.71,16.3,5.14,20.93c3.43,4.63,8.82,6.94,16.16,6.94s12.69-2.3,16.03-6.91c3.34-4.61,5.01-11.59,5.01-20.95v-43.81
			C182.48,274.7,180.85,268.15,177.61,263.68z M175.57,335.1c0,7.87-6.4,14.27-14.27,14.27s-14.27-6.4-14.27-14.27v-58.47
			c0-7.87,6.4-14.27,14.27-14.27s14.27,6.4,14.27,14.27V335.1z"/>
	</g>
	<path class="st1" d="M224.62,270.81v-12.68h-32.87v95.79h14.59v-44.9h16.98v-12.73h-16.98v-25.47H224.62z M218.09,301.76v1.47
		h-18.22v45.4h-1.47v-85.04h20.99v1.47h-19.53v36.7H218.09z"/>
	<path class="st1" d="M229.37,258.13v12.63h11.21v83.16h14.53v-83.16h10.78v-12.63H229.37z M260.66,265.06h-12.23v83.57h-1.47
		v-83.57h-12.23v-1.47h25.94V265.06z"/>
	<path class="st1" d="M307.84,314.35c-2.01-4.39-5-8.73-8.95-13.01l-7.89-8.54c-2.65-2.83-4.48-5.15-5.5-6.97
		c-1.02-1.81-1.52-4.24-1.52-7.29c0-3.05,0.5-5.33,1.5-6.86c1-1.52,2.63-2.29,4.9-2.29c2.27,0,3.8,1.01,4.6,3.02
		c0.8,2.01,1.2,5.34,1.2,9.99v6.86h13.44v-5.93c0-8.6-1.32-15.14-3.95-19.62c-2.63-4.48-7.67-6.72-15.1-6.72
		c-7.44,0-12.68,1.92-15.73,5.77c-3.05,3.85-4.57,9.72-4.57,17.63c0,4.86,0.92,9.14,2.75,12.84c1.83,3.7,4.4,7.28,7.7,10.72
		l7.08,7.29c3.16,3.27,5.46,6.4,6.91,9.39c1.45,2.99,2.18,6.5,2.18,10.53c0,4.03-0.41,6.93-1.23,8.71s-2.48,2.67-4.98,2.67
		c-2.5,0-4.21-1.08-5.12-3.24c-0.91-2.16-1.36-5.91-1.36-11.24v-9.63h-13.83v8.54c0,9.14,1.48,16.1,4.44,20.87
		c2.96,4.77,8.2,7.16,15.73,7.16c7.53,0,12.8-2.14,15.81-6.42c3.01-4.28,4.52-10.9,4.52-19.87
		C310.86,323.54,309.85,318.75,307.84,314.35z M302.82,343.8c-2.46,3.69-6.45,5.56-11.83,5.56c-14.51,0-14.51-14.22-14.51-25.64
		h1.47c0,14.15,0.94,24.17,13.04,24.17c4.87,0,8.44-1.65,10.61-4.91c4.42-6.61,2.17-18.45-0.28-24.35
		c-3.07-7.4-10.01-14.76-15.59-20.67c-3.94-4.18-7.06-7.48-7.93-9.82c-1.5-4.02-2.57-14.58,1.75-20.8c2.3-3.31,5.74-4.99,10.23-4.99
		c4.16,0,7.44,1.21,9.77,3.59c4.5,4.6,4.33,12.44,4.24,16.65c-0.01,0.52-0.02,0.98-0.02,1.38h-1.47c0-0.41,0.01-0.88,0.02-1.41
		c0.09-4,0.25-11.43-3.82-15.59c-2.04-2.09-4.98-3.14-8.72-3.14c-3.98,0-7.02,1.47-9.02,4.36c-4.01,5.78-2.99,15.68-1.58,19.45
		c0.77,2.05,3.94,5.42,7.62,9.32c5.66,6,12.7,13.47,15.88,21.11C305.35,324.5,307.59,336.66,302.82,343.8z"/>
</g>
</svg>
