<?xml version="1.0" encoding="utf-8"?>
<!-- Generator: Adobe Illustrator 23.0.4, SVG Export Plug-In . SVG Version: 6.00 Build 0)  -->
<svg version="1.1" id="Layer_1" xmlns="http://www.w3.org/2000/svg" xmlns:xlink="http://www.w3.org/1999/xlink" x="0px" y="0px"
	 viewBox="0 0 792 612" style="enable-background:new 0 0 792 612;" xml:space="preserve">
<style type="text/css">
	.st0{fill:#FFFFFF;}
</style>
<path class="st0" d="M389.37,274.18h1.13c0.28,0,0.5-0.03,0.66-0.1c0.19-0.06,0.32-0.16,0.41-0.25c0.09-0.1,0.16-0.22,0.19-0.32
	c0.03-0.13,0.06-0.22,0.06-0.32c0-0.1-0.03-0.19-0.06-0.31c-0.03-0.13-0.1-0.22-0.19-0.32c-0.1-0.1-0.22-0.19-0.41-0.25
	c-0.19-0.06-0.41-0.1-0.66-0.1h-1.13V274.18z M388.83,271.69h1.48h0.32c0.13,0,0.25,0.03,0.41,0.06c0.16,0.03,0.32,0.06,0.44,0.13
	c0.16,0.06,0.28,0.16,0.41,0.25c0.13,0.13,0.22,0.25,0.32,0.41c0.09,0.16,0.13,0.38,0.13,0.63c0,0.28-0.03,0.5-0.13,0.66
	c-0.1,0.19-0.22,0.31-0.35,0.44c-0.13,0.1-0.28,0.19-0.47,0.25c-0.16,0.06-0.35,0.1-0.5,0.13l1.64,2.74h-0.6l-1.61-2.68h-0.98v2.68
	h-0.53v-5.7H388.83z"/>
<polygon class="st0" points="394.53,271.69 398,271.69 398,272.17 395.07,272.17 395.07,274.18 397.84,274.18 397.84,274.65 
	395.07,274.65 395.07,276.86 398.12,276.86 398.12,277.33 394.53,277.33 "/>
<path class="st0" d="M400.55,276.32c0.13,0.25,0.32,0.41,0.54,0.54c0.22,0.13,0.47,0.19,0.76,0.19c0.19,0,0.35-0.03,0.5-0.09
	c0.16-0.06,0.28-0.13,0.41-0.22c0.13-0.09,0.22-0.22,0.28-0.35c0.06-0.13,0.09-0.28,0.09-0.47c0-0.19-0.03-0.35-0.13-0.5
	c-0.09-0.13-0.19-0.22-0.35-0.31c-0.13-0.1-0.28-0.16-0.47-0.22c-0.19-0.06-0.35-0.13-0.54-0.19c-0.19-0.06-0.38-0.13-0.54-0.19
	c-0.19-0.06-0.32-0.16-0.47-0.28c-0.12-0.13-0.25-0.28-0.35-0.44c-0.09-0.19-0.13-0.41-0.13-0.66c0-0.25,0.06-0.47,0.16-0.66
	c0.09-0.19,0.22-0.35,0.41-0.5c0.16-0.12,0.35-0.22,0.57-0.28c0.22-0.06,0.44-0.09,0.69-0.09c0.32,0,0.6,0.06,0.85,0.16
	c0.25,0.1,0.5,0.28,0.69,0.54l-0.47,0.32c-0.13-0.19-0.28-0.32-0.47-0.41c-0.19-0.1-0.38-0.13-0.63-0.13c-0.16,0-0.35,0.03-0.5,0.06
	c-0.16,0.03-0.28,0.13-0.41,0.19c-0.13,0.09-0.22,0.19-0.28,0.35c-0.06,0.13-0.09,0.28-0.09,0.47c0,0.28,0.06,0.5,0.22,0.66
	c0.16,0.16,0.32,0.28,0.54,0.35c0.22,0.09,0.44,0.16,0.69,0.22c0.25,0.06,0.5,0.16,0.69,0.28c0.22,0.13,0.41,0.28,0.54,0.47
	c0.16,0.19,0.22,0.47,0.22,0.82c0,0.25-0.06,0.47-0.16,0.69c-0.1,0.19-0.22,0.38-0.38,0.5c-0.16,0.13-0.35,0.25-0.57,0.32
	c-0.22,0.06-0.44,0.1-0.66,0.1c-0.38,0-0.72-0.06-1.04-0.19c-0.31-0.13-0.6-0.35-0.82-0.66L400.55,276.32z"/>
<rect x="406" y="271.69" class="st0" width="0.54" height="5.67"/>
<path class="st0" d="M409.65,276.89h1.1c0.38,0,0.72-0.03,1.04-0.13c0.32-0.09,0.6-0.25,0.85-0.44s0.44-0.44,0.57-0.72
	c0.13-0.28,0.22-0.66,0.22-1.04c0-0.38-0.06-0.76-0.22-1.04c-0.13-0.28-0.31-0.54-0.57-0.72c-0.25-0.19-0.54-0.35-0.85-0.44
	c-0.32-0.09-0.66-0.13-1.04-0.13h-1.1V276.89z M409.12,271.69h1.76c0.5,0,0.91,0.06,1.26,0.19c0.35,0.13,0.63,0.28,0.85,0.47
	c0.22,0.19,0.41,0.41,0.54,0.63c0.13,0.22,0.22,0.44,0.28,0.66c0.06,0.22,0.1,0.41,0.13,0.57c0.03,0.16,0.03,0.28,0.03,0.35
	c0,0.06,0,0.19-0.03,0.35c-0.03,0.16-0.06,0.35-0.13,0.57c-0.06,0.22-0.16,0.44-0.28,0.66c-0.13,0.22-0.32,0.44-0.54,0.63
	c-0.22,0.19-0.5,0.35-0.85,0.47c-0.35,0.13-0.76,0.19-1.26,0.19h-1.76V271.69z"/>
<polygon class="st0" points="416.26,271.69 419.73,271.69 419.73,272.17 416.8,272.17 416.8,274.18 419.57,274.18 419.57,274.65 
	416.8,274.65 416.8,276.86 419.85,276.86 419.85,277.33 416.26,277.33 "/>
<polygon class="st0" points="422.15,271.69 422.85,271.69 426.31,276.67 426.34,276.67 426.34,271.69 426.88,271.69 426.88,277.36 
	426.15,277.36 422.69,272.39 422.69,277.36 422.15,277.36 "/>
<polygon class="st0" points="430.75,272.17 428.8,272.17 428.8,271.69 433.21,271.69 433.21,272.17 431.25,272.17 431.25,277.36 
	430.72,277.36 430.72,272.17 "/>
<rect x="435.22" y="271.69" class="st0" width="0.54" height="5.67"/>
<path class="st0" d="M440.45,272.26l-1.32,3.12h2.61L440.45,272.26z M440.2,271.69h0.54l2.39,5.67h-0.6l-0.63-1.51h-2.99l-0.63,1.51
	h-0.57L440.2,271.69z"/>
<polygon class="st0" points="445.08,271.69 445.62,271.69 445.62,276.89 448.26,276.89 448.26,277.36 445.08,277.36 "/>
<path class="st0" d="M381.06,277.36h-1.26v-2.46h-2.43v2.46h-1.26v-5.67h1.26v2.11h2.43v-2.11h1.26V277.36z M374.13,277.39
	c-0.38,0.16-0.76,0.25-1.13,0.25c-0.44,0-0.85-0.09-1.23-0.22c-0.38-0.13-0.69-0.35-0.98-0.6c-0.25-0.25-0.47-0.57-0.63-0.95
	c-0.16-0.38-0.22-0.79-0.22-1.23c0-0.44,0.06-0.85,0.22-1.23c0.16-0.38,0.35-0.69,0.63-0.95c0.28-0.25,0.6-0.47,0.98-0.6
	c0.38-0.16,0.79-0.22,1.23-0.22c0.16,0,0.32,0,0.5,0.03c0.16,0,0.35,0.06,0.5,0.13c0.16,0.06,0.32,0.16,0.47,0.25
	c0.16,0.09,0.28,0.22,0.41,0.38l-0.98,0.79c-0.13-0.16-0.25-0.25-0.44-0.35c-0.19-0.1-0.41-0.13-0.63-0.13
	c-0.25,0-0.47,0.03-0.66,0.13c-0.22,0.09-0.38,0.22-0.54,0.38c-0.16,0.16-0.25,0.35-0.35,0.57c-0.1,0.22-0.13,0.47-0.13,0.73
	c0,0.25,0.03,0.5,0.13,0.72c0.09,0.22,0.19,0.41,0.35,0.57c0.13,0.16,0.32,0.28,0.5,0.38c0.19,0.09,0.41,0.13,0.63,0.13
	c0.28,0,0.5-0.06,0.69-0.16c0.19-0.09,0.38-0.25,0.54-0.35l1.04,0.79C374.79,276.99,374.5,277.24,374.13,277.39 M368.68,275.76
	c-0.16,0.38-0.35,0.69-0.63,0.94c-0.28,0.25-0.6,0.47-0.98,0.6c-0.38,0.16-0.79,0.22-1.23,0.22c-0.44,0-0.85-0.09-1.23-0.22
	c-0.38-0.13-0.69-0.35-0.98-0.6c-0.25-0.25-0.47-0.57-0.63-0.94c-0.16-0.38-0.22-0.79-0.22-1.23s0.06-0.85,0.22-1.23
	c0.16-0.38,0.35-0.69,0.63-0.95c0.28-0.25,0.6-0.47,0.98-0.6c0.38-0.16,0.79-0.22,1.23-0.22c0.44,0,0.85,0.1,1.23,0.22
	c0.38,0.13,0.69,0.35,0.98,0.6c0.25,0.25,0.47,0.57,0.63,0.95c0.16,0.38,0.22,0.79,0.22,1.23S368.84,275.38,368.68,275.76
	 M361.72,274.21c-0.1,0.22-0.25,0.41-0.44,0.54c-0.19,0.13-0.41,0.22-0.66,0.28c-0.25,0.06-0.54,0.1-0.82,0.1h-0.91v2.2h-1.26v-5.67
	h2.11c0.28,0,0.57,0.03,0.82,0.1c0.28,0.06,0.5,0.16,0.69,0.28c0.19,0.13,0.35,0.32,0.47,0.5c0.09,0.22,0.16,0.5,0.16,0.85
	C361.88,273.71,361.81,273.99,361.72,274.21 M356.18,277.36h-4v-5.67h3.84v1.17h-2.58v1.04h2.46v1.17h-2.46v1.13h2.74V277.36z
	 M347.99,280.26h37.26V268.8h-37.26V280.26z"/>
<path class="st0" d="M367.14,273.24c-0.16-0.16-0.35-0.28-0.57-0.38c-0.22-0.09-0.47-0.13-0.72-0.13c-0.25,0-0.5,0.03-0.73,0.13
	c-0.22,0.1-0.41,0.22-0.57,0.38c-0.16,0.16-0.25,0.35-0.35,0.57c-0.09,0.22-0.13,0.47-0.13,0.72c0,0.25,0.03,0.5,0.13,0.73
	c0.06,0.22,0.19,0.41,0.35,0.57c0.16,0.16,0.35,0.28,0.57,0.38c0.22,0.1,0.47,0.13,0.73,0.13c0.25,0,0.5-0.03,0.72-0.13
	c0.22-0.09,0.41-0.22,0.57-0.38c0.16-0.16,0.25-0.35,0.35-0.57c0.1-0.22,0.13-0.44,0.13-0.73c0-0.25-0.03-0.5-0.13-0.72
	C367.42,273.58,367.29,273.39,367.14,273.24"/>
<path class="st0" d="M360.24,272.86c-0.09-0.06-0.22-0.09-0.35-0.09c-0.13-0.03-0.25-0.03-0.38-0.03h-0.63v1.35h0.82
	c0.09,0,0.22,0,0.32-0.03c0.09,0,0.19-0.03,0.28-0.1c0.06-0.06,0.13-0.13,0.19-0.22c0.06-0.1,0.09-0.19,0.09-0.35
	c0-0.16-0.03-0.25-0.09-0.35C360.43,272.99,360.33,272.92,360.24,272.86"/>
<path class="st0" d="M449.27,272.23c0.03,0,0.1,0,0.13-0.03c0.03-0.03,0.06-0.06,0.06-0.1c0-0.03-0.03-0.06-0.06-0.09
	c-0.03,0-0.06-0.03-0.13-0.03h-0.13v0.25H449.27z M449.02,271.85h0.28h0.13c0.03,0,0.06,0.03,0.09,0.03
	c0.03,0.03,0.06,0.03,0.06,0.06c0.03,0.03,0.03,0.06,0.03,0.13c0,0.06-0.03,0.13-0.06,0.16c-0.03,0.03-0.1,0.06-0.16,0.06l0.22,0.38
	h-0.16l-0.19-0.35h-0.13v0.35h-0.16v-0.82H449.02z M448.67,272.29c0,0.09,0.03,0.16,0.06,0.25c0.03,0.06,0.06,0.16,0.13,0.19
	c0.06,0.03,0.13,0.09,0.19,0.13c0.06,0.03,0.16,0.06,0.25,0.06c0.09,0,0.16-0.03,0.25-0.06c0.06-0.03,0.16-0.1,0.19-0.13
	c0.06-0.06,0.09-0.13,0.13-0.19c0.03-0.06,0.06-0.16,0.06-0.25c0-0.09-0.03-0.16-0.06-0.25c-0.03-0.06-0.06-0.16-0.13-0.19
	c-0.06-0.06-0.13-0.09-0.19-0.13c-0.06-0.03-0.16-0.06-0.25-0.06c-0.1,0-0.16,0.03-0.25,0.06c-0.06,0.03-0.16,0.06-0.19,0.13
	c-0.06,0.06-0.1,0.13-0.13,0.19C448.67,272.1,448.67,272.2,448.67,272.29 M448.54,272.29c0-0.09,0.03-0.19,0.06-0.28
	c0.03-0.1,0.09-0.16,0.16-0.25c0.06-0.06,0.16-0.13,0.25-0.16c0.1-0.03,0.19-0.06,0.28-0.06c0.09,0,0.19,0.03,0.28,0.06
	c0.1,0.03,0.16,0.1,0.25,0.16c0.06,0.06,0.13,0.16,0.16,0.25c0.03,0.09,0.06,0.19,0.06,0.28c0,0.09-0.03,0.19-0.06,0.28
	c-0.03,0.1-0.1,0.16-0.16,0.25c-0.06,0.06-0.16,0.13-0.25,0.16c-0.09,0.03-0.19,0.06-0.28,0.06c-0.1,0-0.19-0.03-0.28-0.06
	c-0.09-0.03-0.16-0.1-0.25-0.16c-0.06-0.06-0.13-0.16-0.16-0.25C448.58,272.48,448.54,272.39,448.54,272.29"/>
</svg>
